G04*
G04 Format:               Gerber RS-274X*
G04 Layer:                TopCopper*
G04 This File Name:       TIUSBKeys.gtl*
G04 Source File Name:     TIUSBKeys.rrb*
G04 Unique ID:            843cec37-0856-41c4-805a-d10cf3bc8157*
G04 Generated Date:       Friday, 01 January 2016 15:42:11*
G04*
G04 Created Using:        Robot Room Copper Connection v2.9.5573*
G04 Software Contact:     http://www.robotroom.com/CopperConnection/Support.aspx*
G04 License Number:       1946*
G04*
G04 Zero Suppression:     Leading*
G04 Number Precision:     2.4*
G04*
%FSLAX24Y24*%
%MOIN*%
%LNTopCopper*%
%ADD10C,.01*%
%ADD11C,.015*%
%ADD12C,.037*%
%ADD13C,.056*%
%ADD14C,.065*%
%ADD15C,.075*%
%ADD16C,.15*%
%ADD17R,.006X.006*%
%ADD18R,.065X.065*%
D10*
G01X3000Y4000D02*
X2000Y6000D01*
X10000Y17000D02*
X9500D01*
X10000Y16000D02*
X9500D01*
X4000Y13000D02*
X4500D01*
X2500Y14500D02*
Y6000D01*
X4000Y18000D02*
X4500D01*
X6000Y16250D02*
X4500Y18000D01*
X2500Y6000D02*
X3500Y4000D01*
X9500Y17000D02*
X6500Y14000D01*
X3500Y13500D02*
Y6000D01*
X4500Y4000D01*
X4000Y12000D02*
X4500D01*
X2000Y15000D02*
Y6000D01*
X3000Y4000D02*
Y2500D01*
X3500Y13500D02*
X4000Y14000D01*
X3000Y13000D02*
Y14000D01*
Y13000D02*
Y6000D01*
X3500Y4000D02*
Y2000D01*
X3000Y6000D02*
X4000Y4000D01*
Y2500D01*
X2500Y14500D02*
X4000Y16000D01*
X4500Y4000D02*
Y2000D01*
X5000Y6500D02*
Y4000D01*
Y2500D01*
X3500Y2000D02*
X4000Y1500D01*
X3000Y14000D02*
X4000Y15000D01*
X9500Y16000D02*
X7000Y13500D01*
X2000Y15000D02*
X4000Y17000D01*
X6000Y16250D02*
Y2500D01*
X5500Y12000D02*
Y2000D01*
X4500D02*
X5000Y1500D01*
X6500Y14000D02*
Y2000D01*
X7000Y13500D02*
Y2500D01*
X5500Y2000D02*
X6000Y1500D01*
X8000D02*
X7500Y2000D01*
X6500D02*
X7000Y1500D01*
X8000Y2500D02*
Y12500D01*
X7500Y2000D02*
Y13000D01*
X9500Y15000D01*
X5500Y12000D02*
X4500Y13000D01*
X5000Y6500D02*
Y11500D01*
X9000Y1500D02*
X8500Y2000D01*
X9500Y15000D02*
X10000D01*
X8000Y12500D02*
X9500Y14000D01*
X10000D01*
X9000Y2500D02*
Y11500D01*
X8500Y2000D02*
Y12000D01*
X9500Y13000D01*
X10000Y2500D02*
Y4000D01*
X9500Y13000D02*
X10000D01*
X9000Y11500D02*
X9500Y12000D01*
X10000D01*
Y1500D02*
X10500Y2000D01*
X10000Y4000D02*
X9500Y5000D01*
Y10500D01*
X10000Y11000D01*
X10500Y2000D02*
Y9500D01*
X10000Y10000D01*
X5000Y11500D02*
X4500Y12000D01*
D11*
X10000Y21000D02*
X14000D01*
X4000D02*
X4750D01*
X14000D02*
X15000Y20000D01*
X14000D02*
Y9000D01*
X9250Y20500D02*
X4750Y21000D01*
X9250Y20500D02*
X13500D01*
X10000Y19000D02*
X10750D01*
X1000D02*
X3000Y21000D01*
X13500Y20500D02*
X14000Y20000D01*
X10750Y19000D02*
X11000Y18500D01*
Y8000D01*
X15000Y20000D02*
Y4500D01*
X15500Y3000D02*
X17000D01*
X14000Y6000D02*
Y9000D01*
X12000Y6000D02*
X14000D01*
X3000Y21000D02*
X4000D01*
X13500Y3000D02*
X14000Y4500D01*
X15500Y3000D02*
X15000Y4500D01*
X14000Y6000D02*
Y4500D01*
D12*
X14000Y9000D03*
X11000Y8000D03*
D13*
X12000Y5000D03*
X18000D03*
Y6000D03*
Y7000D03*
Y8000D03*
Y9000D03*
Y10000D03*
Y11000D03*
Y12000D03*
Y13000D03*
Y14000D03*
Y15000D03*
Y16000D03*
X12000Y6000D03*
Y7000D03*
Y8000D03*
Y9000D03*
Y10000D03*
Y11000D03*
Y12000D03*
Y13000D03*
Y14000D03*
Y15000D03*
Y16000D03*
X4000Y8000D03*
X10000D03*
Y9000D03*
Y10000D03*
Y11000D03*
Y12000D03*
Y13000D03*
Y14000D03*
Y15000D03*
Y16000D03*
Y17000D03*
Y18000D03*
Y19000D03*
Y20000D03*
Y21000D03*
X4000Y9000D03*
Y10000D03*
Y11000D03*
Y12000D03*
Y13000D03*
Y14000D03*
Y15000D03*
Y16000D03*
Y17000D03*
Y18000D03*
Y19000D03*
Y20000D03*
Y21000D03*
X10000Y6000D03*
X13500Y3000D03*
X15500D03*
X10000Y5000D03*
D14*
X3000Y2500D03*
X4000Y1500D03*
Y2500D03*
X5000Y1500D03*
Y2500D03*
X6000Y1500D03*
Y2500D03*
X7000Y1500D03*
Y2500D03*
X8000Y1500D03*
Y2500D03*
X9000Y1500D03*
Y2500D03*
X10000Y1500D03*
Y2500D03*
D15*
X1000Y19000D03*
X17000Y3000D03*
X1000Y18000D03*
Y17000D03*
Y16000D03*
Y15000D03*
D16*
X1000Y20500D03*
X18000D03*
Y1000D03*
D18*
X3000Y1500D03*
M02*
