G04*
G04 Format:               Gerber RS-274X*
G04 Layer:                TopSilkscreen*
G04 This File Name:       TIUSBKeys.gto*
G04 Source File Name:     TIUSBKeys.rrb*
G04 Unique ID:            24e25263-e91d-4db0-bbc5-79a7aba35fac*
G04 Generated Date:       Saturday, 23 January 2016 13:07:51*
G04*
G04 Created Using:        Robot Room Copper Connection v2.9.5573*
G04 Software Contact:     http://www.robotroom.com/CopperConnection/Support.aspx*
G04 License Number:       1946*
G04*
G04 Zero Suppression:     Leading*
G04 Number Precision:     2.4*
G04*
%FSLAX24Y24*%
%MOIN*%
%LNTopSilkscreen*%
%ADD10C,.006*%
%ADD11C,.0071*%
%ADD12C,.0079*%
%ADD13C,.012*%
%ADD14C,.037*%
%ADD15C,.056*%
%ADD16C,.065*%
%ADD17C,.075*%
%ADD18C,.15*%
%ADD19R,.006X.006*%
%ADD20R,.065X.065*%
D10*
G01X4500Y19931D02*
Y20186D01*
X4564Y20250D01*
X4691D01*
X4755Y20186D01*
Y19931D01*
X4691Y19868D01*
X4564D01*
X4500Y19931D01*
X4755Y20186D01*
X9000Y17186D02*
X9064Y17250D01*
X9191D01*
X9255Y17186D01*
Y17123D01*
X9191Y17059D01*
X9064D01*
X9000Y16995D01*
Y16867D01*
X9255D01*
X9382Y17186D02*
X9446Y17250D01*
X9574D01*
X9637Y17186D01*
Y17123D01*
X9574Y17059D01*
X9446D01*
X9382Y16995D01*
Y16867D01*
X9637D01*
D11*
X17300Y4000D02*
Y3775D01*
X17150Y3625D01*
X17000Y3775D01*
Y4000D01*
X17150Y3625D02*
Y3550D01*
X17450Y4000D02*
X17675D01*
X17750Y3925D01*
Y3850D01*
X17675Y3775D01*
X17525D01*
X17675D02*
X17750Y3700D01*
Y3625D01*
X17675Y3550D01*
X17450D01*
X17525Y4000D02*
Y3550D01*
X18200Y4000D02*
Y3625D01*
X18125Y3550D01*
X17975D01*
X17900Y3625D01*
Y4000D01*
X18350Y3625D02*
X18425Y3550D01*
X18575D01*
X18650Y3625D01*
Y3700D01*
X18575Y3775D01*
X18425D01*
X18350Y3850D01*
Y3925D01*
X18425Y4000D01*
X18575D01*
X18650Y3925D01*
X10750Y19525D02*
X11050D01*
X10900Y19675D02*
Y19375D01*
X11200Y19675D02*
X11275Y19750D01*
X11425D01*
X11500Y19675D01*
Y19600D01*
X11425Y19525D01*
X11350D01*
X11425D02*
X11500Y19450D01*
Y19375D01*
X11425Y19300D01*
X11275D01*
X11200Y19375D01*
X11725D02*
X11800Y19300D01*
X11725D01*
Y19375D01*
X11800D01*
Y19300D01*
X12100Y19675D02*
X12175Y19750D01*
X12325D01*
X12400Y19675D01*
Y19600D01*
X12325Y19525D01*
X12250D01*
X12325D02*
X12400Y19450D01*
Y19375D01*
X12325Y19300D01*
X12175D01*
X12100Y19375D01*
X12850Y19600D02*
Y19450D01*
X12700Y19300D01*
X12550Y19450D01*
Y19600D01*
X17500Y3025D02*
X17800D01*
X17650Y3175D02*
Y2875D01*
X18250Y3250D02*
X17950D01*
Y3100D01*
X18175D01*
X18250Y3025D01*
Y2875D01*
X18175Y2800D01*
X18025D01*
X17950Y2875D01*
X18700Y3100D02*
Y2950D01*
X18550Y2800D01*
X18400Y2950D01*
Y3100D01*
X9125Y4550D02*
X9200Y4475D01*
Y4325D01*
X9125Y4250D01*
X8825D01*
X8750Y4325D01*
Y4475D01*
X8825Y4550D01*
Y4700D02*
X8750Y4775D01*
Y4925D01*
X8825Y5000D01*
X8900D01*
X8975Y4925D01*
Y4775D01*
X9050Y4700D01*
X9200D01*
Y5000D01*
X8825Y5675D02*
X8750Y5750D01*
X9200D01*
Y5675D02*
Y5825D01*
X9125Y6050D02*
X8825D01*
X8750Y6125D01*
Y6275D01*
X8825Y6350D01*
X9125D01*
X9200Y6275D01*
Y6125D01*
X9125Y6050D01*
X8825Y6350D01*
X9050Y6800D02*
X9200Y6650D01*
Y6575D01*
X9125Y6500D01*
X8900D01*
Y6800D02*
X9200D01*
Y7100D02*
X8825D01*
X8750Y7175D01*
X8825Y7250D01*
X8975Y7025D02*
Y7175D01*
X9200Y7025D02*
Y7175D01*
X1500Y18025D02*
X1800D01*
X1650Y18175D02*
Y17875D01*
X2250Y18250D02*
X1950D01*
Y18100D01*
X2175D01*
X2250Y18025D01*
Y17875D01*
X2175Y17800D01*
X2025D01*
X1950Y17875D01*
X2700Y18100D02*
Y17950D01*
X2550Y17800D01*
X2400Y17950D01*
Y18100D01*
X1725Y18950D02*
X1800D01*
Y18800D01*
X1575D01*
X1500Y18875D01*
Y19175D01*
X1575Y19250D01*
X1725D01*
X1800Y19175D01*
X1950Y18800D02*
Y19250D01*
X2250Y18950D01*
Y19250D02*
Y18800D01*
X2400Y19250D02*
X2625D01*
X2700Y19175D01*
Y18875D01*
X2625Y18800D01*
X2400D01*
X2475Y19250D02*
Y18800D01*
X1725Y16950D02*
X1800D01*
Y16800D01*
X1575D01*
X1500Y16875D01*
Y17175D01*
X1575Y17250D01*
X1725D01*
X1800Y17175D01*
X1950D02*
X2025Y17250D01*
X2175D01*
X2250Y17175D01*
Y17100D01*
X2175Y17025D01*
X2100D01*
X2175D02*
X2250Y16950D01*
Y16875D01*
X2175Y16800D01*
X2025D01*
X1950Y16875D01*
X1725Y14950D02*
X1800D01*
Y14800D01*
X1575D01*
X1500Y14875D01*
Y15175D01*
X1575Y15250D01*
X1725D01*
X1800Y15175D01*
X2025D02*
X2100Y15250D01*
Y14800D01*
X2025D02*
X2175D01*
X1725Y15950D02*
X1800D01*
Y15800D01*
X1575D01*
X1500Y15875D01*
Y16175D01*
X1575Y16250D01*
X1725D01*
X1800Y16175D01*
X1950D02*
X2025Y16250D01*
X2175D01*
X2250Y16175D01*
Y16100D01*
X2175Y16025D01*
X2025D01*
X1950Y15950D01*
Y15800D01*
X2250D01*
D12*
X7250Y20500D02*
Y20165D01*
Y20332D02*
X6748D01*
Y19746D02*
Y19914D01*
X6831Y19998D01*
X6999D01*
X7082Y19914D01*
Y19746D01*
X6999Y19663D01*
X6915D01*
Y19998D01*
X6748Y19244D02*
Y19411D01*
X6831Y19495D01*
X6999D01*
X7082Y19411D01*
Y19244D01*
X6999Y19160D01*
X6915D01*
Y19495D01*
X7082Y18993D02*
X6748D01*
X6915D02*
X7082Y18825D01*
Y18741D01*
X6999Y18658D01*
X6748D01*
X7082Y18155D02*
Y18406D01*
X6999Y18490D01*
X6915Y18406D01*
Y18239D01*
X6831Y18155D01*
X6748Y18239D01*
Y18490D01*
X6915Y17653D02*
X6748Y17820D01*
Y17904D01*
X6831Y17988D01*
X7082D01*
Y17653D02*
X6664D01*
X6580Y17736D01*
Y17988D01*
X7166Y16982D02*
X7250Y16899D01*
Y16731D01*
X7166Y16648D01*
X7082D01*
X6999Y16731D01*
Y16815D01*
Y16731D02*
X6915Y16648D01*
X6831D01*
X6748Y16731D01*
Y16899D01*
X6831Y16982D01*
Y16396D02*
X6748Y16312D01*
Y16396D01*
X6831D01*
Y16312D01*
X6748D01*
X7166Y15894D02*
X7250Y15810D01*
X6748D01*
Y15894D02*
Y15726D01*
X7166Y15140D02*
X6831Y15475D01*
X7166Y14972D02*
X7250Y14889D01*
Y14721D01*
X7166Y14637D01*
X7082D01*
X6999Y14721D01*
Y14805D01*
Y14721D02*
X6915Y14637D01*
X6831D01*
X6748Y14721D01*
Y14889D01*
X6831Y14972D01*
Y14386D02*
X6748Y14302D01*
Y14386D01*
X6831D01*
Y14302D01*
X6748D01*
X7166Y13967D02*
X7250Y13884D01*
Y13716D01*
X7166Y13632D01*
X7082D01*
X6999Y13716D01*
Y13884D01*
X6915Y13967D01*
X6748D01*
Y13632D01*
X1584Y2666D02*
X1667Y2750D01*
Y2247D01*
X1584D02*
X1751D01*
X2337Y2750D02*
X2002D01*
Y2582D01*
X2254D01*
X2337Y2499D01*
Y2331D01*
X2254Y2247D01*
X2086D01*
X2002Y2331D01*
X15500Y15665D02*
X15081D01*
X14997Y15749D01*
Y15916D01*
X15081Y16000D01*
X15500D01*
Y15497D02*
X14997D01*
X15249D02*
Y15162D01*
X15500D02*
X14997D01*
X15081Y14995D02*
X14997Y14911D01*
Y14744D01*
X15081Y14660D01*
X15165D01*
X15249Y14744D01*
Y14911D01*
X15333Y14995D01*
X15416D01*
X15500Y14911D01*
Y14744D01*
X15416Y14660D01*
X15333Y13990D02*
X14997D01*
X15249D02*
X15333Y13906D01*
X15249Y13822D01*
X14997D01*
X15249D02*
X15333Y13739D01*
X15249Y13655D01*
X14997D01*
Y13404D02*
Y13236D01*
X15249Y13404D02*
Y13320D01*
X14997D01*
X15500D02*
X15416D01*
X15333Y12985D02*
X14997D01*
X15165D02*
X15333Y12818D01*
Y12734D01*
X15249Y12650D01*
X14997D01*
Y12399D02*
Y12231D01*
X15249Y12399D02*
Y12315D01*
X14997D01*
X15500D02*
X15416D01*
X12500Y832D02*
Y497D01*
Y665D02*
X12668Y832D01*
X12751D01*
X12835Y749D01*
X13254Y497D02*
X13086D01*
X13002Y581D01*
Y749D01*
X13086Y832D01*
X13254D01*
X13337Y749D01*
Y665D01*
X13002D01*
X13840Y832D02*
Y665D01*
X13672Y497D01*
X13505Y665D01*
Y832D01*
X14008Y916D02*
X14091Y1000D01*
X14259D01*
X14343Y916D01*
Y832D01*
X14259Y749D01*
X14091D01*
X14008Y665D01*
Y497D01*
X14343D01*
X1331Y13665D02*
X1247Y13749D01*
Y13832D01*
X1331Y13916D01*
X1750D01*
X1582Y14000D02*
Y13749D01*
X1247Y13414D02*
Y13246D01*
X1499Y13414D02*
Y13330D01*
X1247D01*
X1750D02*
X1666D01*
X1582Y12995D02*
X1247D01*
X1415D02*
X1582Y12828D01*
Y12744D01*
X1499Y12660D01*
X1247D01*
X1415Y12158D02*
X1247Y12325D01*
Y12409D01*
X1331Y12493D01*
X1582D01*
Y12158D02*
X1164D01*
X1080Y12241D01*
Y12493D01*
X1415Y11655D02*
X1247Y11823D01*
Y11906D01*
X1331Y11990D01*
X1582D01*
Y11655D02*
X1247D01*
X1582Y11488D02*
X1247D01*
X1415D02*
X1582Y11320D01*
Y11236D01*
X1499Y11153D01*
X1750Y10901D02*
Y10818D01*
X1247D01*
Y10901D02*
Y10734D01*
X1331Y10399D02*
X1247Y10315D01*
Y10399D01*
X1331D01*
Y10315D01*
X1247D01*
X1331Y9645D02*
X1247Y9729D01*
Y9896D01*
X1331Y9980D01*
X1499D01*
X1582Y9896D01*
Y9729D01*
X1499Y9645D01*
X1331Y9478D02*
X1499D01*
X1582Y9394D01*
Y9226D01*
X1499Y9143D01*
X1331D01*
X1247Y9226D01*
Y9394D01*
X1331Y9478D01*
X1582Y8975D02*
X1247D01*
X1499D02*
X1582Y8891D01*
X1499Y8808D01*
X1247D01*
X1499D02*
X1582Y8724D01*
X1499Y8640D01*
X1247D01*
X1666Y8138D02*
X1331Y8473D01*
Y7970D02*
X1499D01*
X1582Y7886D01*
Y7719D01*
X1499Y7635D01*
X1331D01*
X1247Y7719D01*
Y7886D01*
X1331Y7970D01*
X1750Y7216D02*
Y7133D01*
X1247D01*
X1415D02*
X1247Y7300D01*
Y7384D01*
X1331Y7468D01*
X1499D01*
X1582Y7384D01*
Y7216D01*
X1499Y7133D01*
X1415Y6630D02*
X1247Y6798D01*
Y6881D01*
X1331Y6965D01*
X1582D01*
Y6630D02*
X1164D01*
X1080Y6714D01*
Y6965D01*
X1499Y6211D02*
X1415Y6128D01*
X1331D01*
X1247Y6211D01*
Y6379D01*
X1331Y6463D01*
X1415D01*
X1499Y6379D01*
X1582Y6463D01*
X1666D01*
X1750Y6379D01*
Y6211D01*
X1666Y6128D01*
X1582D01*
X1499Y6211D01*
Y6379D01*
X1750Y5876D02*
Y5793D01*
X1247D01*
Y5876D02*
Y5709D01*
X1582Y5123D02*
X1331D01*
X1247Y5206D01*
X1331Y5290D01*
X1247Y5374D01*
X1331Y5458D01*
X1582D01*
X1415Y5290D02*
X1331D01*
X1415Y4955D02*
X1499Y4871D01*
Y4704D01*
X1415Y4620D01*
X1331D01*
X1247Y4704D01*
Y4871D01*
X1331Y4955D01*
X1415D01*
X1582D01*
X1750Y4787D01*
Y4704D01*
D13*
X1050Y300D02*
Y3700D01*
X11950D02*
X1050D01*
X11950D02*
Y300D01*
X1050D02*
X11950D01*
X9700Y6500D02*
X10300D01*
X10500Y6300D01*
Y4700D01*
X10300Y4500D01*
X9700D01*
X9500Y4700D01*
Y6300D01*
X9700Y6500D01*
%LPC*%
D14*
X14000Y9000D03*
X11000Y8000D03*
D15*
X12000Y5000D03*
X18000D03*
Y6000D03*
Y7000D03*
Y8000D03*
Y9000D03*
Y10000D03*
Y11000D03*
Y12000D03*
Y13000D03*
Y14000D03*
Y15000D03*
Y16000D03*
X12000Y6000D03*
Y7000D03*
Y8000D03*
Y9000D03*
Y10000D03*
Y11000D03*
Y12000D03*
Y13000D03*
Y14000D03*
Y15000D03*
Y16000D03*
X4000Y8000D03*
X10000D03*
Y9000D03*
Y10000D03*
Y11000D03*
Y12000D03*
Y13000D03*
Y14000D03*
Y15000D03*
Y16000D03*
Y17000D03*
Y18000D03*
Y19000D03*
Y20000D03*
Y21000D03*
X4000Y9000D03*
Y10000D03*
Y11000D03*
Y12000D03*
Y13000D03*
Y14000D03*
Y15000D03*
Y16000D03*
Y17000D03*
Y18000D03*
Y19000D03*
Y20000D03*
Y21000D03*
X10000Y6000D03*
Y5000D03*
D16*
X3000Y2500D03*
X4000Y1500D03*
Y2500D03*
X5000Y1500D03*
Y2500D03*
X6000Y1500D03*
Y2500D03*
X7000Y1500D03*
Y2500D03*
X8000Y1500D03*
Y2500D03*
X9000Y1500D03*
Y2500D03*
X10000Y1500D03*
Y2500D03*
D17*
X1000Y19000D03*
X17000Y3000D03*
X1000Y18000D03*
Y17000D03*
Y16000D03*
Y15000D03*
D18*
X1000Y20500D03*
X18000D03*
Y1000D03*
D20*
X3000Y1500D03*
%LPD*%
D19*
X0Y21500D02*
X19000D01*
Y0D01*
X0D01*
Y21500D01*
M02*
