M48
;
; Format:               Excellon NC Drill Ascii
; This File Name:       TIUSBKeys.xln
; Source File Name:     TIUSBKeys.rrb
; Unique ID:            8966a901-4822-446d-b114-529644ef4203
; Generated Date:       Saturday, 30 January 2016 18:51:44
;
; Created Using:        Robot Room Copper Connection v2.9.5573
; Software Contact:     http://www.robotroom.com/CopperConnection/Support.aspx
; License Number:       1946
;
; Zero Suppression:     None
; Number Precision:     2.4
;
FMAT,2
INCH
T01C.02
T02C.029
T03C.035
T04C.04
T05C.079
%
T01
X011000Y008000
X014000Y009000
T02
X004000Y008000
Y009000
Y010000
Y011000
Y012000
Y013000
Y014000
Y015000
Y016000
Y017000
Y018000
Y019000
Y020000
Y021000
X010000
Y020000
Y019000
Y018000
Y017000
Y016000
Y015000
Y014000
Y013000
Y012000
Y011000
Y010000
Y009000
Y008000
X012000
Y007000
Y006000
Y005000
X010000
Y006000
X012000Y009000
Y010000
Y011000
Y012000
Y013000
Y014000
Y015000
Y016000
X018000
Y015000
Y014000
Y013000
Y012000
Y011000
Y010000
Y009000
Y008000
Y007000
Y006000
Y005000
T03
X003000Y001500
X004000
X005000
X006000
X007000
Y002500
X006000
X005000
X004000
X003000
X008000
X009000
X010000
Y001500
X009000
X008000
T04
X001000Y015000
Y016000
Y017000
Y018000
Y019000
X017000Y003000
T05
X018000Y001000
Y020500
X001000
M30
