G04*
G04 Format:               Gerber RS-274X*
G04 Layer:                TopSolderMask*
G04 This File Name:       TIUSBKeys.gts*
G04 Source File Name:     TIUSBKeys.rrb*
G04 Unique ID:            24e25263-e91d-4db0-bbc5-79a7aba35fac*
G04 Generated Date:       Saturday, 23 January 2016 13:07:51*
G04*
G04 Created Using:        Robot Room Copper Connection v2.9.5573*
G04 Software Contact:     http://www.robotroom.com/CopperConnection/Support.aspx*
G04 License Number:       1946*
G04*
G04 Zero Suppression:     Leading*
G04 Number Precision:     2.4*
G04*
G04 Polarity:             Negative. Dark is solderable. Clear space is coating.*
G04*
%FSLAX24Y24*%
%MOIN*%
%LNTopSolderMask*%
%ADD10C,.047*%
%ADD11C,.066*%
%ADD12C,.075*%
%ADD13C,.085*%
%ADD14C,.16*%
%ADD15R,.006X.006*%
%ADD16R,.075X.075*%
D10*
G01X14000Y9000D03*
X11000Y8000D03*
D11*
X12000Y5000D03*
X18000D03*
Y6000D03*
Y7000D03*
Y8000D03*
Y9000D03*
Y10000D03*
Y11000D03*
Y12000D03*
Y13000D03*
Y14000D03*
Y15000D03*
Y16000D03*
X12000Y6000D03*
Y7000D03*
Y8000D03*
Y9000D03*
Y10000D03*
Y11000D03*
Y12000D03*
Y13000D03*
Y14000D03*
Y15000D03*
Y16000D03*
X4000Y8000D03*
X10000D03*
Y9000D03*
Y10000D03*
Y11000D03*
Y12000D03*
Y13000D03*
Y14000D03*
Y15000D03*
Y16000D03*
Y17000D03*
Y18000D03*
Y19000D03*
Y20000D03*
Y21000D03*
X4000Y9000D03*
Y10000D03*
Y11000D03*
Y12000D03*
Y13000D03*
Y14000D03*
Y15000D03*
Y16000D03*
Y17000D03*
Y18000D03*
Y19000D03*
Y20000D03*
Y21000D03*
X10000Y6000D03*
Y5000D03*
D12*
X3000Y2500D03*
X4000Y1500D03*
Y2500D03*
X5000Y1500D03*
Y2500D03*
X6000Y1500D03*
Y2500D03*
X7000Y1500D03*
Y2500D03*
X8000Y1500D03*
Y2500D03*
X9000Y1500D03*
Y2500D03*
X10000Y1500D03*
Y2500D03*
D13*
X1000Y19000D03*
X17000Y3000D03*
X1000Y18000D03*
Y17000D03*
Y16000D03*
Y15000D03*
D14*
X1000Y20500D03*
X18000D03*
Y1000D03*
D16*
X3000Y1500D03*
M02*
